<?xml version="1.0" encoding="utf-8"?>
<svg version="1.1" id="Layer_1"
xmlns="http://www.w3.org/2000/svg"
xmlns:xlink="http://www.w3.org/1999/xlink"
width="489px" height="192px"
xml:space="preserve">
<g id="PathID_23" transform="matrix(1.62319, 0, 0, 1.62319, 35.2, 90.55)" opacity="1">
<path style="fill:#2D4079;fill-opacity:1" d="M20.25 0.7Q11.6 0.7 7.1 -4.1Q2.55 -8.9 2.55 -17.75Q2.55 -22.15 3.95 -25.6Q5.3 -29.05 7.7 -31.45Q10.15 -33.85 13.45 -35.05Q16.8 -36.3 20.65 -36.3Q22.95 -36.3 24.75 -35.95Q26.6 -35.6 28 -35.2Q29.4 -34.75 30.3 -34.3L31.65 -33.55L29.35 -27.1Q27.7 -28 25.5 -28.6Q23.35 -29.2 20.55 -29.2Q18.75 -29.2 16.95 -28.6Q15.2 -28 13.85 -26.65Q12.5 -25.3 11.65 -23.15Q10.85 -21 10.85 -17.9Q10.85 -15.45 11.4 -13.35Q11.9 -11.2 13.1 -9.65Q14.3 -8.15 16.25 -7.25Q18.2 -6.35 21 -6.35Q22.7 -6.35 24.1 -6.55Q25.5 -6.75 26.55 -7.05Q27.65 -7.3 28.45 -7.65L29.95 -8.35L32.15 -1.95Q30.45 -0.9 27.4 -0.1Q24.3 0.7 20.25 0.7" />
</g>
<g id="PathID_24" transform="matrix(1.62319, 0, 0, 1.62319, 35.2, 90.55)" opacity="1">
</g>
<g id="PathID_25" transform="matrix(1.62319, 0, 0, 1.62319, 89.05, 90.55)" opacity="1">
<path style="fill:#2D4079;fill-opacity:1" d="M11.2 0L3.55 0L3.55 -26.9L11.2 -26.9L11.2 0M11.9 -34.7Q11.9 -32.6 10.55 -31.4Q9.2 -30.2 7.35 -30.2Q5.5 -30.2 4.15 -31.4Q2.8 -32.6 2.8 -34.7Q2.8 -36.8 4.15 -38Q5.5 -39.2 7.35 -39.2Q9.2 -39.2 10.55 -38Q11.9 -36.8 11.9 -34.7" />
</g>
<g id="PathID_26" transform="matrix(1.62319, 0, 0, 1.62319, 89.05, 90.55)" opacity="1">
</g>
<g id="PathID_27" transform="matrix(1.62319, 0, 0, 1.62319, 113.05, 90.55)" opacity="1">
<path style="fill:#2D4079;fill-opacity:1" d="M3.3 -33.65L10.95 -34.85L10.95 -26.9L20.1 -26.9L20.1 -20.55L10.95 -20.55L10.95 -11.1Q10.95 -8.7 11.8 -7.25Q12.65 -5.8 15.2 -5.8Q16.4 -5.8 17.75 -6.05Q19.05 -6.3 20.1 -6.7L21.2 -0.75Q19.8 -0.2 18.1 0.2Q16.4 0.6 13.95 0.6Q10.85 0.6 8.8 -0.2Q6.75 -1.05 5.5 -2.55Q4.3 -4.1 3.8 -6.25Q3.3 -8.4 3.3 -11L3.3 -33.65" />
</g>
<g id="PathID_28" transform="matrix(1.62319, 0, 0, 1.62319, 113.05, 90.55)" opacity="1">
</g>
<g id="PathID_29" transform="matrix(1.62319, 0, 0, 1.62319, 149.9, 90.55)" opacity="1">
<path style="fill:#2D4079;fill-opacity:1" d="M27.5 -26.9Q25.2 -19.15 22.65 -12.35Q20.15 -5.5 17.2 0.85Q16.1 3.15 15.05 4.75Q13.95 6.4 12.7 7.45Q11.4 8.5 9.8 8.95Q8.2 9.45 6.05 9.45Q4.25 9.45 2.75 9.15Q1.2 8.8 0.25 8.4L1.55 2.3Q2.75 2.7 3.65 2.85Q4.6 3 5.6 3Q7.65 3 8.75 1.9Q9.85 0.8 10.65 -1.1Q8.05 -6.25 5.4 -12.6Q2.8 -19 0.5 -26.9L8.6 -26.9Q9.1 -24.9 9.8 -22.6L11.25 -17.9L12.8 -13.25L14.3 -9.15Q15 -11 15.7 -13.25L17.1 -17.9L18.45 -22.6L19.6 -26.9L27.5 -26.9" />
</g>
<g id="PathID_30" transform="matrix(1.62319, 0, 0, 1.62319, 149.9, 90.55)" opacity="1">
</g>
<g id="PathID_31" transform="matrix(1.62319, 0, 0, 1.62319, 78, 158.15)" opacity="1">
<path style="fill:#637ABC;fill-opacity:1" d="M26.05 -17.45L31 -17.45L31 -0.85L29.25 -0.4L26.6 0.1L23.3 0.55Q21.5 0.7 19.65 0.7Q15.9 0.7 12.85 -0.5Q9.75 -1.75 7.55 -4.1Q5.35 -6.45 4.15 -9.85Q2.95 -13.3 2.95 -17.75Q2.95 -22.2 4.3 -25.65Q5.65 -29.1 7.95 -31.5Q10.3 -33.85 13.4 -35.05Q16.45 -36.3 20 -36.3Q22.4 -36.3 24.3 -36Q26.15 -35.65 27.5 -35.25Q28.8 -34.85 29.65 -34.45L30.8 -33.85L29.2 -29.7Q27.75 -30.65 25.3 -31.3Q22.8 -31.95 20.25 -31.95Q17.55 -31.95 15.3 -30.95Q13.1 -30 11.55 -28.15Q9.95 -26.3 9.1 -23.65Q8.25 -21.05 8.25 -17.75Q8.25 -14.6 8.95 -11.95Q9.7 -9.35 11.25 -7.5Q12.75 -5.6 14.95 -4.6Q17.2 -3.55 20.2 -3.55Q22.35 -3.55 23.85 -3.8Q25.4 -4.05 26.05 -4.25L26.05 -17.45" />
</g>
<g id="PathID_32" transform="matrix(1.62319, 0, 0, 1.62319, 78, 158.15)" opacity="1">
</g>
<g id="PathID_33" transform="matrix(1.62319, 0, 0, 1.62319, 133.75, 158.15)" opacity="1">
<path style="fill:#637ABC;fill-opacity:1" d="M25.3 -0.75Q23.65 -0.35 20.95 0.1Q18.25 0.55 14.75 0.55Q11.65 0.55 9.55 -0.3Q7.45 -1.2 6.2 -2.85Q4.9 -4.5 4.35 -6.7Q3.8 -8.95 3.8 -11.65L3.8 -26.6L8.55 -26.6L8.55 -12.7Q8.55 -7.8 10.05 -5.7Q11.6 -3.6 15.25 -3.6L16.85 -3.65L18.35 -3.8L19.65 -3.95L20.5 -4.15L20.5 -26.6L25.3 -26.6L25.3 -0.75" />
</g>
<g id="PathID_34" transform="matrix(1.62319, 0, 0, 1.62319, 133.75, 158.15)" opacity="1">
</g>
<g id="PathID_35" transform="matrix(1.62319, 0, 0, 1.62319, 181.5, 158.15)" opacity="1">
<path style="fill:#637ABC;fill-opacity:1" d="M8.85 0L4.1 0L4.1 -26.6L8.85 -26.6L8.85 0M6.45 -31.4Q5.15 -31.4 4.25 -32.25Q3.35 -33.1 3.35 -34.55Q3.35 -36 4.25 -36.85Q5.15 -37.65 6.45 -37.65Q7.7 -37.65 8.6 -36.85Q9.5 -36 9.5 -34.55Q9.5 -33.1 8.6 -32.25Q7.7 -31.4 6.45 -31.4" />
</g>
<g id="PathID_36" transform="matrix(1.62319, 0, 0, 1.62319, 181.5, 158.15)" opacity="1">
</g>
<g id="PathID_37" transform="matrix(1.62319, 0, 0, 1.62319, 202.4, 158.15)" opacity="1">
<path style="fill:#637ABC;fill-opacity:1" d="M21.3 -21Q20.4 -21.7 18.8 -22.35Q17.15 -23.05 15.2 -23.05Q13.15 -23.05 11.7 -22.3Q10.25 -21.55 9.3 -20.25Q8.4 -18.95 7.95 -17.15Q7.55 -15.35 7.55 -13.3Q7.55 -8.65 9.85 -6.1Q12.15 -3.55 16 -3.55Q17.95 -3.55 19.25 -3.75Q20.55 -3.95 21.3 -4.15L21.3 -21M21.3 -38.9L26.05 -39.7L26.05 -0.75Q24.4 -0.3 21.85 0.15Q19.3 0.6 15.95 0.6Q12.9 0.6 10.45 -0.35Q7.95 -1.3 6.25 -3.1Q4.5 -4.9 3.55 -7.5Q2.6 -10.05 2.6 -13.3Q2.6 -16.35 3.4 -18.95Q4.2 -21.5 5.7 -23.35Q7.25 -25.2 9.5 -26.2Q11.7 -27.25 14.6 -27.25Q16.9 -27.25 18.65 -26.6Q20.4 -26 21.3 -25.45L21.3 -38.9" />
</g>
<g id="PathID_38" transform="matrix(1.62319, 0, 0, 1.62319, 202.4, 158.15)" opacity="1">
</g>
<g id="PathID_39" transform="matrix(1.62319, 0, 0, 1.62319, 251.3, 158.15)" opacity="1">
<path style="fill:#637ABC;fill-opacity:1" d="M2.6 -13.25Q2.6 -16.8 3.6 -19.4Q4.65 -22.05 6.35 -23.8Q8.05 -25.55 10.25 -26.4Q12.45 -27.3 14.75 -27.3Q20.1 -27.3 23 -23.9Q25.85 -20.55 25.85 -13.7L25.85 -12.9L25.8 -12L7.55 -12Q7.85 -7.85 9.95 -5.7Q12.05 -3.55 16.55 -3.55Q19.05 -3.55 20.75 -4Q22.45 -4.45 23.35 -4.85L24 -0.85Q23.15 -0.4 20.95 0.1Q18.8 0.6 16 0.6Q12.55 0.6 10 -0.4Q7.45 -1.45 5.8 -3.3Q4.2 -5.15 3.4 -7.7Q2.6 -10.25 2.6 -13.25M20.9 -15.85Q20.95 -19.1 19.25 -21.15Q17.6 -23.25 14.7 -23.25Q13.05 -23.25 11.8 -22.6Q10.55 -21.95 9.65 -20.95Q8.8 -19.9 8.3 -18.55Q7.8 -17.25 7.65 -15.85L20.9 -15.85" />
</g>
<g id="PathID_40" transform="matrix(1.62319, 0, 0, 1.62319, 251.3, 158.15)" opacity="1">
</g>
<g id="PathID_41" transform="matrix(1, 0, 0, 1, 189.45, -460.1)" opacity="1">
</g>
<g id="PathID_42" transform="matrix(1, 0, 0, 1, 189.45, -460.1)" opacity="1">
</g>
<g id="PathID_43" transform="matrix(1.94229, 0, 0, 1.94229, 201.35, 22.85)" opacity="1">
<path style="fill:#2D4079;fill-opacity:1" d="M135.45 21.9L135.45 25.55L140.6 25.55L140.6 34.45L142.65 34.45L142.65 39.7L0 39.7L0 34.45L4.45 34.45L4.45 2.8L14.95 2.8L14.95 34.45L17.7 34.45L17.7 16.75L20.35 16.75L20.35 12.75L21.2 12.75L21.2 16.75L25.95 16.75L25.95 12.55L26.9 12.55L26.9 16.75L28.6 16.75L28.6 34.45L35.9 34.45L35.8 21.2L41.05 15.25L41.05 34.45L42.1 34.45L42.1 21.55L76.15 21.55L76.15 34.45L79.25 34.45L79.25 1.4L87.8 1.4L87.8 34.45L91.6 34.45L91.6 12.45L112.25 12.45L112.25 34.45L113.7 34.45L113.7 25.55L114.95 25.55L114.95 21.9L124.55 21.9L124.55 0L134.55 0L134.55 21.9L135.45 21.9M136.8 25.8L136.8 34.45L137.85 34.45L137.85 25.8L136.8 25.8M132.75 26.05L132.75 34.45L133.9 34.45L133.9 26.05L132.75 26.05M125.7 26.05L123.3 26.05L123.3 34.45L125.7 34.45L125.7 26.05M128.2 34.45L129.7 34.45L129.7 26.05L128.2 26.05L128.2 34.45M110.3 14.85L108.3 14.85L108.3 16.7L110.3 16.7L110.3 14.85M108.3 17.5L108.3 19.3L110.3 19.3L110.3 17.5L108.3 17.5M105.5 14.85L103.45 14.85L103.45 16.7L105.5 16.7L105.5 14.85M103.45 17.5L103.45 19.3L105.5 19.3L105.5 17.5L103.45 17.5M103.45 24.45L105.5 24.45L105.5 22.65L103.45 22.65L103.45 24.45M103.45 20.05L103.45 21.9L105.5 21.9L105.5 20.05L103.45 20.05M108.3 24.45L110.3 24.45L110.3 22.65L108.3 22.65L108.3 24.45M108.3 20.05L108.3 21.9L110.3 21.9L110.3 20.05L108.3 20.05M100.4 16.7L100.4 14.85L98.4 14.85L98.4 16.7L100.4 16.7M98.4 17.5L98.4 19.3L100.4 19.3L100.4 17.5L98.4 17.5M93.3 16.7L95.25 16.7L95.25 14.85L93.3 14.85L93.3 16.7M93.3 17.5L93.3 19.3L95.25 19.3L95.25 17.5L93.3 17.5M93.3 24.45L95.25 24.45L95.25 22.65L93.3 22.65L93.3 24.45M95.25 21.9L95.25 20.05L93.3 20.05L93.3 21.9L95.25 21.9M98.4 24.45L100.4 24.45L100.4 22.65L98.4 22.65L98.4 24.45M100.4 21.9L100.4 20.05L98.4 20.05L98.4 21.9L100.4 21.9M100.4 25.2L98.4 25.2L98.4 27.05L100.4 27.05L100.4 25.2M100.4 27.8L98.4 27.8L98.4 29.6L100.4 29.6L100.4 27.8M95.25 25.2L93.3 25.2L93.3 27.05L95.25 27.05L95.25 25.2M95.25 29.6L95.25 27.8L93.3 27.8L93.3 29.6L95.25 29.6M119.65 34.45L119.65 26.05L118.15 26.05L118.15 34.45L119.65 34.45M108.3 29.6L110.3 29.6L110.3 27.8L108.3 27.8L108.3 29.6M110.3 27.05L110.3 25.2L108.3 25.2L108.3 27.05L110.3 27.05M103.45 25.2L103.45 27.05L105.5 27.05L105.5 25.2L103.45 25.2M103.45 27.8L103.45 29.6L105.5 29.6L105.5 27.8L103.45 27.8M12 5.6L12 7L13.9 7L13.9 5.6L12 5.6M12 11.8L13.9 11.8L13.9 10.35L12 10.35L12 11.8M10.85 10.35L9 10.35L9 11.8L10.85 11.8L10.85 10.35M12 8L12 9.35L13.9 9.35L13.9 8L12 8M10.85 8L9 8L9 9.35L10.85 9.35L10.85 8M10.85 5.6L9 5.6L9 7L10.85 7L10.85 5.6M5.8 5.6L5.8 7L7.7 7L7.7 5.6L5.8 5.6M5.8 11.8L7.7 11.8L7.7 10.35L5.8 10.35L5.8 11.8M7.7 8L5.8 8L5.8 9.35L7.7 9.35L7.7 8M9 14.1L10.85 14.1L10.85 12.75L9 12.75L9 14.1M7.7 12.75L5.8 12.75L5.8 14.1L7.7 14.1L7.7 12.75M7.7 15.15L5.8 15.15L5.8 16.55L7.7 16.55L7.7 15.15M5.8 17.55L5.8 18.9L7.7 18.9L7.7 17.55L5.8 17.55M9 16.55L10.85 16.55L10.85 15.15L9 15.15L9 16.55M8.75 21.2L10.55 21.2L10.55 19.85L8.75 19.85L8.75 21.2M7.7 19.85L5.8 19.85L5.8 21.2L7.7 21.2L7.7 19.85M5.8 23.6L7.7 23.6L7.7 22.25L5.8 22.25L5.8 23.6M8.75 23.6L10.55 23.6L10.55 22.25L8.75 22.25L8.75 23.6M5.8 24.6L5.8 25.95L7.7 25.95L7.7 24.6L5.8 24.6M9 18.9L10.85 18.9L10.85 17.55L9 17.55L9 18.9M13.9 12.75L12 12.75L12 14.1L13.9 14.1L13.9 12.75M12 15.15L12 16.55L13.9 16.55L13.9 15.15L12 15.15M12 17.55L12 18.9L13.9 18.9L13.9 17.55L12 17.55M13.9 19.85L12 19.85L12 21.2L13.9 21.2L13.9 19.85M12 23.6L13.9 23.6L13.9 22.25L12 22.25L12 23.6M12 24.6L12 25.95L13.9 25.95L13.9 24.6L12 24.6M8.75 24.6L8.75 25.95L10.55 25.95L10.55 24.6L8.75 24.6M10.55 29.4L8.75 29.4L8.75 30.8L10.55 30.8L10.55 29.4M12 30.8L13.9 30.8L13.9 29.4L12 29.4L12 30.8M13.9 28.35L13.9 27.05L12 27.05L12 28.35L13.9 28.35M10.55 27.05L8.75 27.05L8.75 28.35L10.55 28.35L10.55 27.05M12 31.8L12 33.15L13.9 33.15L13.9 31.8L12 31.8M10.55 31.8L8.75 31.8L8.75 33.15L10.55 33.15L10.55 31.8M5.8 30.8L7.7 30.8L7.7 29.4L5.8 29.4L5.8 30.8M5.8 28.35L7.7 28.35L7.7 27.05L5.8 27.05L5.8 28.35M7.7 31.8L5.8 31.8L5.8 33.15L7.7 33.15L7.7 31.8" />
</g>
<g id="PathID_44" transform="matrix(1.94229, 0, 0, 1.94229, 201.35, 22.85)" opacity="1">
</g>
</svg>
